<svg width="903" height="219" viewBox="0 0 903 219" fill="none" xmlns="http://www.w3.org/2000/svg">
<path d="M107.337 22.7568C59.9125 22.7569 21.4678 61.9449 21.4678 110.285C21.4678 158.625 59.9125 197.812 107.337 197.812V218.819C48.0565 218.819 0.000194219 169.835 0 109.41C0 48.9848 48.0564 1.26103e-05 107.337 0V22.7568Z" fill="#153D7C"/>
<path d="M211.001 157.439C193.55 193.787 156.911 218.819 114.535 218.819V197.812C144.925 197.812 171.627 181.72 186.889 157.439H211.001ZM114.535 0C154.441 1.13174e-05 189.261 22.1989 207.758 55.1426H181.222C165.478 35.3837 141.454 22.7568 114.535 22.7568V0Z" fill="#D9D9D9"/>
<ellipse cx="112.12" cy="109.071" rx="17.5942" ry="15.5816" fill="#C81C1C"/>
<path d="M111.775 41.3251C149.119 41.3252 179.391 71.6562 179.391 109.071C179.391 146.486 149.119 176.817 111.775 176.817C74.4314 176.817 44.158 146.486 44.158 109.071C44.158 71.6561 74.4314 41.3251 111.775 41.3251ZM111.436 52.8417C79.8812 52.8419 54.3008 78.4714 54.3005 110.087C54.3005 141.702 79.881 167.333 111.436 167.333C142.992 167.333 168.573 141.703 168.573 110.087C168.573 78.4713 142.992 52.8417 111.436 52.8417Z" fill="#202BFE"/>
<rect x="109.705" y="52.8419" width="4.82978" height="40.6476" fill="#123C84"/>
<rect x="129.714" y="113.136" width="4.74222" height="39.3282" transform="rotate(-90 129.714 113.136)" fill="#123C84"/>
<rect x="54.5075" y="113.813" width="4.74222" height="40.0182" transform="rotate(-90 54.5075 113.813)" fill="#123C84"/>
<rect x="109.705" y="124.653" width="4.82978" height="42.68" fill="#123C84"/>
<path d="M112 73C131.33 73 147 88.67 147 108C147 127.33 131.33 143 112 143C92.67 143 77 127.33 77 108C77 88.67 92.67 73 112 73ZM112.175 78.5996C95.8411 78.5997 82.5997 91.8411 82.5996 108.175C82.5996 124.509 95.8411 137.75 112.175 137.75C128.509 137.75 141.75 124.509 141.75 108.175C141.75 91.8411 128.509 78.5996 112.175 78.5996Z" fill="#202BFE"/>
<path d="M241.8 151H227.1C222.993 145.773 220.193 140.547 218.7 135.32C217.207 130.093 216.46 123.56 216.46 115.72V79.46H235.08V117.12C235.08 125.613 236.76 132.007 240.12 136.3H253.14V79.46H271.76V151H257.06L254.54 145.96C250.993 149.32 246.747 151 241.8 151ZM316.079 94.16H305.579C304.179 95.84 303.012 98.1733 302.079 101.16C301.239 104.147 300.819 107.04 300.819 109.84H320.839C321.025 107.04 320.652 104.147 319.719 101.16C318.785 98.08 317.572 95.7467 316.079 94.16ZM335.119 136.3V151H299.559C293.025 146.613 288.405 141.2 285.699 134.76C283.085 128.227 281.779 121.647 281.779 115.02C281.779 99.7133 287.565 87.86 299.139 79.46H321.819C328.072 84.0333 332.319 88.8867 334.559 94.02C336.799 99.1533 337.919 104.333 337.919 109.56C337.919 114.787 337.499 119.267 336.659 123H301.799C302.079 125.147 302.872 127.62 304.179 130.42C305.579 133.127 307.072 135.087 308.659 136.3H335.119Z" fill="url(#paint0_linear_3_37)"/>
<path d="M394.493 151H364.813C358.093 144.84 353.193 137.513 350.113 129.02C347.033 120.527 345.493 111.66 345.493 102.42C345.493 93.0867 347.36 83.8933 351.093 74.84C354.826 65.7867 360.053 58.5067 366.773 53H400.793V69.8H374.753C372.326 72.6 370.226 77.0333 368.453 83.1C366.68 89.0733 365.793 95.4667 365.793 102.28C365.793 109 366.586 115.44 368.173 121.6C369.853 127.667 371.906 132.053 374.333 134.76H387.773V96.68H406.253V120.2C406.253 133.08 402.333 143.347 394.493 151ZM448.833 94.16H438.333C436.933 95.84 435.766 98.1733 434.833 101.16C433.993 104.147 433.573 107.04 433.573 109.84H453.593C453.779 107.04 453.406 104.147 452.473 101.16C451.539 98.08 450.326 95.7467 448.833 94.16ZM467.873 136.3V151H432.313C425.779 146.613 421.159 141.2 418.453 134.76C415.839 128.227 414.533 121.647 414.533 115.02C414.533 99.7133 420.319 87.86 431.893 79.46H454.573C460.826 84.0333 465.073 88.8867 467.313 94.02C469.553 99.1533 470.673 104.333 470.673 109.56C470.673 114.787 470.253 119.267 469.413 123H434.553C434.833 125.147 435.626 127.62 436.933 130.42C438.333 133.127 439.826 135.087 441.413 136.3H467.873ZM511.147 79.46H525.987C530.094 84.6867 532.894 89.9133 534.387 95.14C535.88 100.367 536.627 106.9 536.627 114.74V151H518.007V113.34C518.007 104.473 516.794 98.08 514.367 94.16H498.687V151H480.067V79.46H494.627L497.147 84.5C499.2 82.6333 501.114 81.3267 502.887 80.58C504.754 79.8333 507.507 79.46 511.147 79.46ZM548.153 151V79.46H566.633V151H548.153ZM548.153 53H566.633V71.9H548.153V53ZM603.421 151H588.721C584.614 145.773 581.814 140.547 580.321 135.32C578.828 130.093 578.081 123.56 578.081 115.72V79.46H596.701V117.12C596.701 125.613 598.381 132.007 601.741 136.3H614.761V79.46H633.381V151H618.681L616.161 145.96C612.614 149.32 608.368 151 603.421 151ZM652.36 79.46H683.3V94.16H661.46L674.76 113.9C680.733 122.393 684.047 128.227 684.7 131.4C685.073 132.893 685.26 134.433 685.26 136.02C685.26 142.647 682.787 147.64 677.84 151H642.14V136.3H667.76L652.78 114.32C652.127 113.293 651.1 111.847 649.7 109.98C648.393 108.113 647.367 106.62 646.62 105.5C645.873 104.287 645.36 103.4 645.08 102.84C644.8 102.28 644.427 101.58 643.96 100.74C643.493 99.8067 643.167 99.0133 642.98 98.36C642.607 96.5867 642.42 95.14 642.42 94.02C642.42 87.2067 645.733 82.3533 652.36 79.46ZM693.885 130.28H714.045V151H693.885V130.28Z" fill="#202BFE"/>
<defs>
<linearGradient id="paint0_linear_3_37" x1="211" y1="77.5" x2="903" y2="77.5" gradientUnits="userSpaceOnUse">
<stop stop-color="#D9D9D9"/>
</linearGradient>
</defs>
</svg>
