<svg width="211" height="219" viewBox="0 0 211 219" fill="none" xmlns="http://www.w3.org/2000/svg">
<path d="M107.337 22.7568C59.9125 22.7569 21.4678 61.9449 21.4678 110.285C21.4678 158.625 59.9125 197.812 107.337 197.812V218.819C48.0565 218.819 0.000194219 169.835 0 109.41C0 48.9848 48.0564 1.26103e-05 107.337 0V22.7568Z" fill="#153D7C"/>
<path d="M211.001 157.439C193.55 193.787 156.911 218.819 114.535 218.819V197.812C144.925 197.812 171.627 181.72 186.889 157.439H211.001ZM114.535 0C154.441 1.13174e-05 189.261 22.1989 207.758 55.1426H181.222C165.478 35.3837 141.454 22.7568 114.535 22.7568V0Z" fill="#D9D9D9"/>
<ellipse cx="112.12" cy="109.071" rx="17.5942" ry="15.5816" fill="#C81C1C"/>
<path d="M111.775 41.3251C149.119 41.3252 179.391 71.6562 179.391 109.071C179.391 146.486 149.119 176.817 111.775 176.817C74.4314 176.817 44.158 146.486 44.158 109.071C44.158 71.6561 74.4314 41.3251 111.775 41.3251ZM111.436 52.8417C79.8812 52.8419 54.3008 78.4714 54.3005 110.087C54.3005 141.702 79.881 167.333 111.436 167.333C142.992 167.333 168.573 141.703 168.573 110.087C168.573 78.4713 142.992 52.8417 111.436 52.8417Z" fill="#202BFE"/>
<rect x="109.705" y="52.8419" width="4.82978" height="40.6476" fill="#123C84"/>
<rect x="129.714" y="113.136" width="4.74222" height="39.3282" transform="rotate(-90 129.714 113.136)" fill="#123C84"/>
<rect x="54.5075" y="113.813" width="4.74222" height="40.0182" transform="rotate(-90 54.5075 113.813)" fill="#123C84"/>
<rect x="109.705" y="124.653" width="4.82978" height="42.68" fill="#123C84"/>
<path d="M112 73C131.33 73 147 88.67 147 108C147 127.33 131.33 143 112 143C92.67 143 77 127.33 77 108C77 88.67 92.67 73 112 73ZM112.175 78.5996C95.8411 78.5997 82.5997 91.8411 82.5996 108.175C82.5996 124.509 95.8411 137.75 112.175 137.75C128.509 137.75 141.75 124.509 141.75 108.175C141.75 91.8411 128.509 78.5996 112.175 78.5996Z" fill="#202BFE"/>
</svg>
